PathFileType	4	(X/Y/Z)	../Python\walking\Walking11\task.trc
DataRate	CameraRate	NumFrames	NumMarkers	Units	OrigDataRate	OrigDataStartFrame	OrigNumFrames
200.000000	200.000000	4	30	mm	200.000000	256	512
Frame#	Time	CLAV			STRN			RASI			LASI			RTH1			RTH2			RTH3			RTB1			RTB2			RTB3			RD5M			RTOE			LTH1			LTH2			LTH3			LTB1			LTB2			LTB3			LTOE			LD5M			PE03			PE02			RPSI			LPSI			T10			LHEE			C7			RHEE			RBAK			PE01			
		X1	Y1	Z1	X2	Y2	Z2	X3	Y3	Z3	X4	Y4	Z4	X5	Y5	Z5	X6	Y6	Z6	X7	Y7	Z7	X8	Y8	Z8	X9	Y9	Z9	X10	Y10	Z10	X11	Y11	Z11	X12	Y12	Z12	X13	Y13	Z13	X14	Y14	Z14	X15	Y15	Z15	X16	Y16	Z16	X17	Y17	Z17	X18	Y18	Z18	X19	Y19	Z19	X20	Y20	Z20	X21	Y21	Z21	X22	Y22	Z22	X23	Y23	Z23	X24	Y24	Z24	X25	Y25	Z25	X26	Y26	Z26	X27	Y27	Z27	X28	Y28	Z28	X29	Y29	Z29	X30	Y30	Z30	

257	1.28	1242.381469726563	1410.152099609375	221.2250061035157	1286.62451171875	1216.0791015625	238.1710052490236	1240.910888671875	1016.063842773438	387.540222167969	1273.149536132813	997.0735473632817	115.4939575195313	1157.907958984375	754.6694946289065	415.9048156738284	1097.0029296875	743.1632080078127	413.4293518066409	1107.172119140625	696.586120605469	396.8612365722659	1029.289794921875	364.1228942871095	335.9395446777345	976.481811523438	331.7137756347657	335.2290344238282	1001.990661621094	290.2377319335939	322.8406677246095	1005.452575683594	15.68840599060059	319.0789489746095	1068.707641601563	30.62801933288576	275.6335754394532	1272.314575195313	689.2078857421877	75.87201690673831	1264.472045898438	644.8695068359377	97.28489685058599	1323.00830078125	629.1617431640627	86.57539367675784	1411.171630859375	358.1553039550782	111.8295440673829	1400.974731445313	311.2151794433595	124.3096237182618	1461.295654296875	297.3852844238282	118.7423858642579	1689.450805664063	117.2625122070313	184.2140045166016	1665.131591796876	80.50484466552737	148.0524291992188	1087.50341796875	1040.925048828125	205.8383941650392	1085.019775390625	1044.320556640625	256.9956970214845	1088.326171875	1058.185668945313	279.5291442871095	1096.224853515625	1051.554443359375	180.2633361816407	1060.105834960938	1250.566040039063	225.3226318359376	1502.481811523438	36.12990570068361	198.1365356445314	1131.881103515625	1508.901245117188	206.1384582519532	853.3621215820317	43.17493057250978	227.1097106933595	1107.050048828125	1428.333251953125	384.2834472656252	1101.031127929688	1101.991577148438	227.445526123047	
258	1.285	1249.301879882813	1408.904663085938	221.1250305175782	1293.504150390625	1214.738525390625	238.1562347412111	1247.744873046875	1014.754272460938	387.5840454101565	1280.329711914063	995.8015747070317	115.2882080078126	1163.29443359375	753.7366943359377	415.9676818847659	1102.322387695313	742.6049804687502	413.3229064941409	1112.231079101563	695.9561767578127	396.763854980469	1032.041625976563	364.0732727050782	335.7518920898439	978.9196166992192	332.1230468750001	334.8706359863282	1004.141784667969	290.4036560058595	322.5695800781251	1005.354614257813	15.80969142913819	318.9291992187501	1068.753784179688	30.58897972106935	275.6491699218751	1277.769653320313	687.500183105469	75.93446350097659	1269.836181640625	643.2569580078127	97.58483123779303	1328.216674804688	627.2796020507815	86.56862640380862	1419.700317382813	357.2763061523439	111.6161193847657	1410.017211914063	310.2212524414064	123.9712066650391	1470.543334960938	297.123748779297	118.8359298706055	1700.816772460938	119.8432235717774	185.2656555175782	1677.132324218751	82.5429611206055	149.0660400390626	1094.47119140625	1039.575805664063	205.447967529297	1091.972778320313	1042.96435546875	256.6041870117189	1095.210205078125	1056.796508789063	279.1378479003907	1103.233520507813	1050.198364257813	179.8712158203126	1066.945678710938	1249.333618164063	225.1295013427736	1514.7216796875	36.1507034301758	198.680633544922	1138.771484375	1507.7275390625	205.9766387939454	853.6675415039067	44.40359497070314	226.7620086669923	1113.818115234375	1427.045166015625	384.1518554687502	1107.991577148438	1100.648681640625	227.0883331298829	
259	1.29	1256.246948242188	1407.687133789063	221.0042419433595	1300.43310546875	1213.426879882813	238.1318969726564	1254.663940429688	1013.440368652344	387.6241455078127	1287.54443359375	994.559448242188	115.0606689453126	1168.737182617188	752.8215942382815	416.0331115722659	1107.699584960938	742.069274902344	413.1973571777346	1117.345458984375	695.347839355469	396.6546630859377	1034.843627929688	364.0581359863282	335.5744628906251	981.4057617187505	332.5786437988282	334.523651123047	1006.334106445313	290.6141662597657	322.3122863769532	1005.260681152344	15.93157482147218	318.7784118652345	1068.794677734375	30.54992103576662	275.6643371582032	1283.528076171875	686.0147705078127	76.00172424316409	1275.511596679688	641.8322753906252	97.80818176269537	1333.777465820313	625.6752929687502	86.58208465576175	1427.94873046875	356.4037170410157	111.474105834961	1418.685913085938	309.2788085937501	123.7741851806641	1479.357543945313	296.7541503906251	118.9578247070313	1711.306518554688	121.8505477905274	186.1647186279297	1688.129638671876	84.08647155761722	149.9679107666016	1101.490966796875	1038.2490234375	205.0788421630861	1098.9912109375	1041.62353515625	256.2338256835939	1102.164672851563	1055.41796875	278.768280029297	1110.288818359375	1048.866088867188	179.4994812011719	1073.836059570313	1248.106689453125	224.9192657470704	1525.954956054688	36.04523086547853	199.3198852539064	1145.6796875	1506.577758789063	205.7862396240236	853.9863891601567	45.72749710083009	226.4613189697267	1120.59521484375	1425.772338867188	383.9901733398439	1115.016479492188	1099.324584960938	226.7576293945314	
260	1.295	1263.216918945313	1406.505615234375	220.8619232177736	1307.412841796875	1212.151611328125	238.0964660644532	1261.6728515625	1012.125	387.657409667969	1294.79541015625	993.356567382813	114.8097152709962	1174.243774414063	751.926940917969	416.0982666015627	1113.141723632813	741.5591430664065	413.051452636719	1122.5224609375	694.764099121094	396.5327758789065	1037.701171875	364.0796203613282	335.4082031250001	983.947387695313	333.0820312500001	334.1921386718751	1008.57275390625	290.8714294433595	322.0718688964845	1005.173400878907	16.05235290527344	318.6286926269532	1068.831909179688	30.51128005981447	275.6799621582032	1289.634521484375	684.7633056640627	76.06040191650393	1281.551391601563	640.6072387695315	97.94100952148443	1339.748779296875	624.3673095703127	86.59763336181643	1435.904052734375	355.5226440429689	111.4127197265626	1426.96533203125	308.3705444335939	123.7296981811524	1487.726928710938	296.2550354003907	119.1083679199219	1720.921752929688	123.2253036499024	186.8990173339844	1698.115966796876	85.07997131347659	150.7471466064454	1108.565551757813	1036.952880859375	204.7330169677736	1106.078125	1040.30517578125	255.8865966796876	1109.193359375	1054.057006835938	278.4226684570314	1117.392578125	1047.566284179688	179.1502838134766	1080.778686523438	1246.890625	224.6940307617189	1536.161376953126	35.79161071777345	200.0327911376954	1152.605834960938	1505.457397460938	205.5674743652345	854.319458007813	47.15233993530275	226.2168579101564	1127.3828125	1424.521118164063	383.7986755371095	1122.108154296875	1098.026977539063	226.4561767578126	
